<?xml version="1.0" encoding="utf-8"?>
<!-- Generator: Adobe Illustrator 22.0.1, SVG Export Plug-In . SVG Version: 6.00 Build 0)  -->
<svg version="1.1" id="Layer_1" xmlns="http://www.w3.org/2000/svg" xmlns:xlink="http://www.w3.org/1999/xlink" x="0px" y="0px"
	 viewBox="0 0 100 100" style="enable-background:new 0 0 100 100;" xml:space="preserve">
<g>
	<path d="M46.1,54.4c-1.1,0-2,0.9-2,2L44,66.1L25.5,48.5L44,30.9V40c0,1.1,0.9,2,2,2s2-0.9,2-2V30c0-1.6-0.8-2.9-2.1-3.5
		c-1.4-0.6-2.9-0.2-4,0.9L22.5,45.8c-0.7,0.7-1.1,1.7-1.1,2.7c0,1,0.4,2,1.2,2.8l18.8,17.8c0.7,0.7,1.7,1.1,2.7,1.1
		c0.5,0,1-0.1,1.5-0.3c1.5-0.6,2.4-2,2.4-3.6l0.1-9.9C48.1,55.3,47.2,54.4,46.1,54.4z"/>
	<path d="M82,46H46c-1.1,0-2,0.9-2,2s0.9,2,2,2h36c1.1,0,2-0.9,2-2S83.1,46,82,46z"/>
</g>
</svg>
